<?xml version="1.0" encoding="UTF-8"?>
<!DOCTYPE svg PUBLIC "-//W3C//DTD SVG 1.1//EN" "http://www.w3.org/Graphics/SVG/1.1/DTD/svg11.dtd">
<svg xmlns="http://www.w3.org/2000/svg" version="1.1" width="396px" height="78px" style="shape-rendering:geometricPrecision; text-rendering:geometricPrecision; image-rendering:optimizeQuality; fill-rule:evenodd; clip-rule:evenodd" xmlns:xlink="http://www.w3.org/1999/xlink">
<g><path style="opacity:0.952" fill="#e6020b" d="M 75.5,1.5 C 80.5,1.5 85.5,1.5 90.5,1.5C 93.1936,13.2726 96.3603,24.9393 100,36.5C 100.5,24.8381 100.667,13.1714 100.5,1.5C 103.833,1.5 107.167,1.5 110.5,1.5C 110.5,23.1667 110.5,44.8333 110.5,66.5C 106.445,66.8242 102.445,66.4909 98.5,65.5C 94.5126,52.5512 90.6792,39.5512 87,26.5C 86.5001,40.1626 86.3334,53.8293 86.5,67.5C 82.8648,68.1143 79.1981,68.4476 75.5,68.5C 75.5,46.1667 75.5,23.8333 75.5,1.5 Z"/></g>
<g><path style="opacity:0.925" fill="#e6020b" d="M 152.5,1.5 C 157.544,1.17252 162.544,1.50585 167.5,2.5C 170.821,12.7813 173.987,23.1147 177,33.5C 177.5,22.8385 177.667,12.1719 177.5,1.5C 181.167,1.5 184.833,1.5 188.5,1.5C 188.5,22.5 188.5,43.5 188.5,64.5C 184.167,64.5 179.833,64.5 175.5,64.5C 172.139,50.7255 168.306,37.0588 164,23.5C 163.5,37.1626 163.333,50.8293 163.5,64.5C 159.833,64.5 156.167,64.5 152.5,64.5C 152.5,43.5 152.5,22.5 152.5,1.5 Z"/></g>
<g><path style="opacity:0.903" fill="#e5020b" d="M 195.5,1.5 C 205.833,1.5 216.167,1.5 226.5,1.5C 226.5,4.83333 226.5,8.16667 226.5,11.5C 220.167,11.5 213.833,11.5 207.5,11.5C 207.5,16.5 207.5,21.5 207.5,26.5C 212.5,26.5 217.5,26.5 222.5,26.5C 222.5,29.8333 222.5,33.1667 222.5,36.5C 217.5,36.5 212.5,36.5 207.5,36.5C 207.5,42.5 207.5,48.5 207.5,54.5C 213.833,54.5 220.167,54.5 226.5,54.5C 226.5,57.8333 226.5,61.1667 226.5,64.5C 216.167,64.5 205.833,64.5 195.5,64.5C 195.5,43.5 195.5,22.5 195.5,1.5 Z"/></g>
<g><path style="opacity:0.919" fill="#e5020b" d="M 229.5,1.5 C 241.167,1.5 252.833,1.5 264.5,1.5C 264.789,5.10636 264.456,8.60636 263.5,12C 259.848,12.4986 256.182,12.6653 252.5,12.5C 252.5,30.1667 252.5,47.8333 252.5,65.5C 248.452,65.6054 244.452,65.2721 240.5,64.5C 240.5,46.8333 240.5,29.1667 240.5,11.5C 236.833,11.5 233.167,11.5 229.5,11.5C 229.5,8.16667 229.5,4.83333 229.5,1.5 Z"/></g>
<g><path style="opacity:0.906" fill="#e5020b" d="M 268.5,1.5 C 278.5,1.5 288.5,1.5 298.5,1.5C 298.5,5.16667 298.5,8.83333 298.5,12.5C 292.5,12.5 286.5,12.5 280.5,12.5C 280.5,17.8333 280.5,23.1667 280.5,28.5C 285.167,28.5 289.833,28.5 294.5,28.5C 294.5,32.1667 294.5,35.8333 294.5,39.5C 289.859,38.8734 285.193,38.5401 280.5,38.5C 280.5,47.8333 280.5,57.1667 280.5,66.5C 276.563,66.7935 272.73,66.4601 269,65.5C 268.5,44.1693 268.333,22.8359 268.5,1.5 Z"/></g>
<g><path style="opacity:0.941" fill="#e6020b" d="M 5.5,1.5 C 10.0986,1.20001 14.5986,1.53335 19,2.5C 21.0558,17.2252 23.3891,31.8919 26,46.5C 28.1219,31.4799 30.2886,16.4799 32.5,1.5C 38.0934,1.19343 43.5934,1.52676 49,2.5C 49.6667,24.8333 49.6667,47.1667 49,69.5C 45.27,70.4601 41.4367,70.7935 37.5,70.5C 37.6666,56.496 37.4999,42.496 37,28.5C 34.8314,42.8438 32.6648,57.1771 30.5,71.5C 27.6029,71.3187 24.7695,71.6521 22,72.5C 21.0546,72.0946 20.3879,71.428 20,70.5C 17.9068,57.5144 15.9068,44.5144 14,31.5C 13.8327,45.1788 13.3327,58.8455 12.5,72.5C 9.24232,73.4173 5.90899,73.7507 2.5,73.5C 2.5,49.8333 2.5,26.1667 2.5,2.5C 3.79105,2.73731 4.79105,2.40397 5.5,1.5 Z"/></g>
<g><path style="opacity:0.909" fill="#e6020b" d="M 56.5,1.5 C 60.5,1.5 64.5,1.5 68.5,1.5C 68.5,23.8333 68.5,46.1667 68.5,68.5C 64.4809,68.6458 60.4809,68.9791 56.5,69.5C 56.5,46.8333 56.5,24.1667 56.5,1.5 Z"/></g>
<g><path style="opacity:0.981" fill="#e6020c" d="M 117.5,1.5 C 121.5,1.5 125.5,1.5 129.5,1.5C 129.5,22.8333 129.5,44.1667 129.5,65.5C 125.534,66.1621 121.534,66.4955 117.5,66.5C 117.5,44.8333 117.5,23.1667 117.5,1.5 Z"/></g>
<g><path style="opacity:0.966" fill="#e6020c" d="M 302.5,1.5 C 306.5,1.5 310.5,1.5 314.5,1.5C 314.5,20.1667 314.5,38.8333 314.5,57.5C 320.863,57.407 327.196,57.7403 333.5,58.5C 333.5,61.8333 333.5,65.1667 333.5,68.5C 323.155,68.466 312.821,68.1327 302.5,67.5C 302.5,45.5 302.5,23.5 302.5,1.5 Z"/></g>
<g><path style="opacity:0.908" fill="#e5020b" d="M 337.5,1.5 C 341.5,1.5 345.5,1.5 349.5,1.5C 349.833,24.5097 349.5,47.5097 348.5,70.5C 344.906,69.5741 341.24,69.2408 337.5,69.5C 337.5,46.8333 337.5,24.1667 337.5,1.5 Z"/></g>
<g><path style="opacity:0.933" fill="#e6020b" d="M 354.5,1.5 C 358.555,1.17575 362.555,1.50909 366.5,2.5C 368.715,9.31642 371.215,15.9831 374,22.5C 376.136,15.758 378.469,9.09137 381,2.5C 384.842,1.20518 388.675,1.37184 392.5,3C 388.208,14.0415 384.208,25.2082 380.5,36.5C 384.906,48.7169 388.906,61.0502 392.5,73.5C 388.124,73.886 383.957,73.2194 380,71.5C 377.793,64.3766 375.293,57.3766 372.5,50.5C 369.905,57.1183 367.405,63.785 365,70.5C 361.257,71.141 357.423,71.141 353.5,70.5C 357.627,59.0726 361.627,47.5726 365.5,36C 361.523,24.57 357.856,13.07 354.5,1.5 Z"/></g>
</svg>
